<svg xmlns="http://www.w3.org/2000/svg" width="102.248" height="16.36" viewBox="0 0 102.248 16.36">
  <g id="Grupo_1684" data-name="Grupo 1684" transform="translate(-785.382 -908.75)">
    <path id="Logo_Gera" data-name="Logo Gera" d="M41.455,16.36a8.885,8.885,0,0,1-2.626-.367,5.61,5.61,0,0,1-1.975-1.026,4.282,4.282,0,0,1-1.194-1.585,4.746,4.746,0,0,1,.031-3.889,3.936,3.936,0,0,1,1.478-1.546,8.388,8.388,0,0,1,2.718-1c.345-.077.712-.13,1.118-.184a25.538,25.538,0,0,1,3.292-.176c.513,0,1.018.008,1.631.023.467.008.965.031,1.462.061a5.141,5.141,0,0,0-1.845-3.277,4.96,4.96,0,0,0-1.187-.7,7.307,7.307,0,0,0-2.672-.536c-.107,0-.222-.008-.329-.008a6.611,6.611,0,0,0-2.542.429c-.352.145-.674.283-.942.413-.069.031-.13.061-.191.092-.222.107-.444.237-.674.375a7.55,7.55,0,0,0-2.22,2.136,8.686,8.686,0,0,0-1.271,2.9l-.046.176h0a11.085,11.085,0,0,1-1.539,3.407,9.565,9.565,0,0,1-2.8,2.695,8.832,8.832,0,0,1-1.523.758c-.191.077-.406.161-.628.237a11.215,11.215,0,0,1-1.615.421,8.3,8.3,0,0,1-1.11.138c-.283.023-.574.031-.85.031a10.2,10.2,0,0,1-3.254-.513,7.946,7.946,0,0,1-2.664-1.516,7.106,7.106,0,0,1-1.409-1.707,7.481,7.481,0,0,1-1.118,1.409,8.18,8.18,0,0,1-1.125.919A8.906,8.906,0,0,1,8.857,16.36H8.39a10.169,10.169,0,0,1-3.254-.513,7.947,7.947,0,0,1-2.664-1.516A7.239,7.239,0,0,1,.214,10.465,9.7,9.7,0,0,1,.03,7.686a8.847,8.847,0,0,1,.6-2.664A7.837,7.837,0,0,1,2.38,2.358,7.943,7.943,0,0,1,5.06.635,8.286,8.286,0,0,1,6.338.245h0L6.491.214A8.324,8.324,0,0,1,7.532.069h.046L7.946.046c.031,0,.122-.008.122-.008.107-.008.222-.008.337-.008H8.91a10.2,10.2,0,0,1,3.254.513,8.231,8.231,0,0,1,.965.4c.138.069.268.237.161.651-.107.436-.567,1.286-1.011,1.286h0a.348.348,0,0,1-.153-.038,10.314,10.314,0,0,0-1.3-.49,7.455,7.455,0,0,0-1.952-.237H8.528a7.839,7.839,0,0,0-.972.054H7.525c-.023,0-.046.008-.069.008l-.038.008c-.077.008-.161.023-.237.038H7.157a6.975,6.975,0,0,0-1.2.337,6.344,6.344,0,0,0-1.332.72l-.008.008-.008.008a6.341,6.341,0,0,0-.643.544,5.763,5.763,0,0,0-1.3,1.983,6.384,6.384,0,0,0-.329,1.087,7.6,7.6,0,0,0-.115,2.136,5.964,5.964,0,0,0,.459,1.883,5.311,5.311,0,0,0,1.332,1.837,5.9,5.9,0,0,0,1.983,1.133,7.678,7.678,0,0,0,2.45.383h.421c.268,0,.528-.015.781-.038a6.368,6.368,0,0,0,3.1-1.141l.015-.015a6.342,6.342,0,0,0,.643-.544,5.763,5.763,0,0,0,1.3-1.983A6.333,6.333,0,0,0,15,9.6c-.3,0-.6.008-.9.008a18.567,18.567,0,0,0-3.652.329,7.267,7.267,0,0,0-2.052.72,2.4,2.4,0,0,0-.988.965.407.407,0,0,1-.406.207,2.212,2.212,0,0,1-1.432-.72.388.388,0,0,1-.046-.375A3.869,3.869,0,0,1,6.974,9.141,8.131,8.131,0,0,1,9.668,8.069a20.666,20.666,0,0,1,4.226-.444c.406-.008.8-.015,1.156-.015a8.809,8.809,0,0,1,.589-2.6A7.838,7.838,0,0,1,17.393,2.35a7.651,7.651,0,0,1,1.585-1.2A8.55,8.55,0,0,1,22.484.061c.36-.031.72-.054,1.072-.054a8.885,8.885,0,0,1,2.626.367A5.61,5.61,0,0,1,28.157,1.4a4.282,4.282,0,0,1,1.194,1.585,4.746,4.746,0,0,1-.031,3.889,3.935,3.935,0,0,1-1.478,1.546,8.388,8.388,0,0,1-2.718,1,10.988,10.988,0,0,1-1.118.184,25.538,25.538,0,0,1-3.292.176c-.513,0-1.018-.008-1.631-.023-.467-.008-.965-.031-1.462-.061a5.141,5.141,0,0,0,1.845,3.277,4.96,4.96,0,0,0,1.187.7,7.307,7.307,0,0,0,2.672.536c.107,0,.222.008.329.008A6.638,6.638,0,0,0,26.2,13.8q.345-.138.643-.276h0l.046-.023A7.956,7.956,0,0,0,30.1,10.817a8.748,8.748,0,0,0,1.271-2.871L33.324.475C33.363.038,34.2,0,34.457,0S35.59.038,35.59.505V.528l-.4,1.508q.287-.207.574-.39a9.434,9.434,0,0,1,1.7-.827c.176-.069.367-.145.574-.214A11.215,11.215,0,0,1,39.655.184a8.3,8.3,0,0,1,1.11-.138c.283-.023.574-.031.85-.031a10.2,10.2,0,0,1,3.254.513,7.947,7.947,0,0,1,2.664,1.516A7.239,7.239,0,0,1,49.791,5.91a9.717,9.717,0,0,1,.184,2.779,8.848,8.848,0,0,1-.6,2.664,7.838,7.838,0,0,1-1.753,2.664,7.651,7.651,0,0,1-1.585,1.2,8.55,8.55,0,0,1-3.506,1.087A10.4,10.4,0,0,1,41.455,16.36Zm3.078-7.8a18.713,18.713,0,0,0-3.491.253,7.193,7.193,0,0,0-2.067.666,2.5,2.5,0,0,0-1.011.926A2.639,2.639,0,0,0,38,12.877a2.445,2.445,0,0,0,.88.865,4.228,4.228,0,0,0,1.286.482,7.4,7.4,0,0,0,1.523.153,5.764,5.764,0,0,0,2.434-.5,5.24,5.24,0,0,0,1.784-1.309,6.145,6.145,0,0,0,1.125-1.9,6.664,6.664,0,0,0,.421-2.044c-.482-.031-.949-.054-1.409-.061-.383-.008-.781-.015-1.217-.015C44.739,8.559,44.639,8.559,44.532,8.559Zm-27-.827c.482.031.949.054,1.4.061.39.008.789.015,1.217.015h.306a18.713,18.713,0,0,0,3.491-.253,7.193,7.193,0,0,0,2.067-.666,2.5,2.5,0,0,0,1.011-.926,2.639,2.639,0,0,0-.038-2.473,2.446,2.446,0,0,0-.88-.865,4.228,4.228,0,0,0-1.286-.482A7.4,7.4,0,0,0,23.3,1.99a5.764,5.764,0,0,0-2.434.5A5.24,5.24,0,0,0,19.077,3.8a6.145,6.145,0,0,0-1.125,1.9A7.127,7.127,0,0,0,17.531,7.732Z" transform="translate(837.627 908.75)" fill="#fff"/>
    <path id="Caminho_7" data-name="Caminho 7" d="M-21.568-.687a2.015,2.015,0,0,0,.207.138,1.975,1.975,0,0,0,.29.138,2.35,2.35,0,0,0,.36.106,1.932,1.932,0,0,0,.406.041,1.629,1.629,0,0,0,.742-.152,1.3,1.3,0,0,0,.484-.415,1.761,1.761,0,0,0,.267-.618,3.293,3.293,0,0,0,.083-.751,2.034,2.034,0,0,0-.47-1.443,1.624,1.624,0,0,0-1.245-.5,4.931,4.931,0,0,0-.715.041,2.654,2.654,0,0,0-.41.088Zm0,2.563h-.6V-4.43a5.391,5.391,0,0,1,.682-.175,5.506,5.506,0,0,1,1.051-.083,2.561,2.561,0,0,1,.954.171,2.063,2.063,0,0,1,.738.493,2.242,2.242,0,0,1,.479.784A2.987,2.987,0,0,1-18.092-2.2a3.334,3.334,0,0,1-.143,1,2.231,2.231,0,0,1-.42.784A1.931,1.931,0,0,1-19.332.1a2.173,2.173,0,0,1-.917.184,2.259,2.259,0,0,1-.816-.134,2.133,2.133,0,0,1-.5-.254Zm8.658-4.085a3.082,3.082,0,0,1-.161,1.023,2.282,2.282,0,0,1-.452.784,2.058,2.058,0,0,1-.687.5,2.1,2.1,0,0,1-.876.18A2.1,2.1,0,0,1-15.962.1a2.058,2.058,0,0,1-.687-.5,2.282,2.282,0,0,1-.452-.784,3.082,3.082,0,0,1-.161-1.023A3.082,3.082,0,0,1-17.1-3.231a2.333,2.333,0,0,1,.452-.788,2.029,2.029,0,0,1,.687-.507,2.1,2.1,0,0,1,.876-.18,2.1,2.1,0,0,1,.876.18,2.029,2.029,0,0,1,.687.507,2.333,2.333,0,0,1,.452.788A3.082,3.082,0,0,1-12.91-2.208Zm-.636,0a2.25,2.25,0,0,0-.415-1.425,1.353,1.353,0,0,0-1.125-.53,1.353,1.353,0,0,0-1.125.53,2.25,2.25,0,0,0-.415,1.425,2.23,2.23,0,0,0,.415,1.42,1.357,1.357,0,0,0,1.125.526,1.357,1.357,0,0,0,1.125-.526A2.23,2.23,0,0,0-13.546-2.208ZM-8.724-4.6q.083.461.217.982t.3,1.06q.161.539.341,1.065t.364.987q.157-.35.332-.853t.35-1.06q.175-.558.327-1.125T-6.244-4.6h.59q-.332,1.4-.724,2.563t-.862,2.2H-7.8q-.138-.323-.29-.724t-.313-.857q-.161-.456-.313-.959T-9.01-3.4q-.138.526-.29,1.028t-.313.959q-.161.456-.313.857t-.29.724h-.572q-.47-1.042-.862-2.2T-12.375-4.6h.636q.1.489.254,1.056t.327,1.125q.175.558.355,1.056t.337.848q.175-.461.355-.987t.337-1.06q.157-.535.3-1.056t.24-.982Zm3.605,2.379a3.026,3.026,0,0,1,.18-1.093,2.407,2.407,0,0,1,.47-.779A1.851,1.851,0,0,1-3.8-4.554a2.022,2.022,0,0,1,.77-.152,1.8,1.8,0,0,1,1.4.572,2.549,2.549,0,0,1,.521,1.761q0,.074,0,.148t-.014.138H-4.482A2.108,2.108,0,0,0-4.049-.742a1.617,1.617,0,0,0,1.291.47,2.608,2.608,0,0,0,.775-.092,3.233,3.233,0,0,0,.415-.157L-1.458,0a2.491,2.491,0,0,1-.484.175,3.055,3.055,0,0,1-.834.1A2.778,2.778,0,0,1-3.846.088a1.914,1.914,0,0,1-.728-.516,2.041,2.041,0,0,1-.415-.788A3.667,3.667,0,0,1-5.119-2.217ZM-1.735-2.6a1.893,1.893,0,0,0-.35-1.162,1.135,1.135,0,0,0-.94-.415,1.252,1.252,0,0,0-.576.129,1.464,1.464,0,0,0-.443.346,1.606,1.606,0,0,0-.3.5,2.061,2.061,0,0,0-.124.6ZM1.658-4.688a3.227,3.227,0,0,1,.558.046,1.71,1.71,0,0,1,.364.092l-.12.516a1.333,1.333,0,0,0-.3-.078,3.421,3.421,0,0,0-.595-.041A2.816,2.816,0,0,0,.944-4.1a1.716,1.716,0,0,0-.309.092V.171h-.6V-4.375a4.42,4.42,0,0,1,.636-.207A3.954,3.954,0,0,1,1.658-4.688ZM3.014-2.217a3.026,3.026,0,0,1,.18-1.093,2.407,2.407,0,0,1,.47-.779,1.851,1.851,0,0,1,.664-.466,2.022,2.022,0,0,1,.77-.152,1.8,1.8,0,0,1,1.4.572,2.549,2.549,0,0,1,.521,1.761q0,.074,0,.148T7-2.088H3.65A2.108,2.108,0,0,0,4.083-.742a1.617,1.617,0,0,0,1.291.47,2.608,2.608,0,0,0,.775-.092,3.233,3.233,0,0,0,.415-.157L6.674,0A2.491,2.491,0,0,1,6.19.171a3.055,3.055,0,0,1-.834.1A2.778,2.778,0,0,1,4.286.088a1.914,1.914,0,0,1-.728-.516,2.041,2.041,0,0,1-.415-.788A3.667,3.667,0,0,1,3.014-2.217ZM6.4-2.6a1.893,1.893,0,0,0-.35-1.162,1.135,1.135,0,0,0-.94-.415,1.252,1.252,0,0,0-.576.129,1.464,1.464,0,0,0-.443.346,1.606,1.606,0,0,0-.3.5,2.061,2.061,0,0,0-.124.6ZM11.957.023A5.39,5.39,0,0,1,11.275.2a5.506,5.506,0,0,1-1.051.083A2.561,2.561,0,0,1,9.27.111a2.063,2.063,0,0,1-.738-.493,2.242,2.242,0,0,1-.479-.784,2.987,2.987,0,0,1-.171-1.042,3.334,3.334,0,0,1,.143-1A2.28,2.28,0,0,1,8.444-4a1.907,1.907,0,0,1,.678-.516,2.173,2.173,0,0,1,.917-.184,2.259,2.259,0,0,1,.816.134,2.133,2.133,0,0,1,.5.254V-6.873l.6-.111Zm-.6-3.753a2.015,2.015,0,0,0-.207-.138,1.976,1.976,0,0,0-.29-.138,2.35,2.35,0,0,0-.36-.106,1.932,1.932,0,0,0-.406-.041A1.588,1.588,0,0,0,9.353-4a1.338,1.338,0,0,0-.484.42,1.761,1.761,0,0,0-.267.618,3.293,3.293,0,0,0-.083.751,2.034,2.034,0,0,0,.47,1.443,1.624,1.624,0,0,0,1.245.5A4.931,4.931,0,0,0,10.948-.3a2.654,2.654,0,0,0,.41-.088Zm4.518-.581a2.133,2.133,0,0,1,.5-.254,2.259,2.259,0,0,1,.816-.134,2.173,2.173,0,0,1,.917.184A1.907,1.907,0,0,1,18.79-4a2.28,2.28,0,0,1,.42.788,3.334,3.334,0,0,1,.143,1,2.987,2.987,0,0,1-.171,1.042,2.242,2.242,0,0,1-.479.784,2.063,2.063,0,0,1-.738.493,2.561,2.561,0,0,1-.954.171A5.506,5.506,0,0,1,15.959.2a5.39,5.39,0,0,1-.682-.175v-6.9l.6-.111Zm0,3.919a2.654,2.654,0,0,0,.41.088A4.931,4.931,0,0,0,17-.262a1.624,1.624,0,0,0,1.245-.5,2.034,2.034,0,0,0,.47-1.443,3.293,3.293,0,0,0-.083-.751,1.761,1.761,0,0,0-.267-.618A1.338,1.338,0,0,0,17.881-4a1.588,1.588,0,0,0-.742-.157,1.932,1.932,0,0,0-.406.041,2.35,2.35,0,0,0-.36.106,1.976,1.976,0,0,0-.29.138,2.015,2.015,0,0,0-.207.138Zm5.892.664q-.3-.562-.585-1.171T20.657-2.13q-.244-.622-.447-1.245T19.859-4.6H20.5q.1.443.258.954t.355,1.056q.2.544.438,1.116t.516,1.125q.2-.572.36-1.079t.29-1.01q.134-.5.258-1.028T23.234-4.6h.6q-.3,1.337-.673,2.6A22.876,22.876,0,0,1,22.339.318a5.316,5.316,0,0,1-.36.715,2.073,2.073,0,0,1-.41.493,1.455,1.455,0,0,1-.526.286,2.409,2.409,0,0,1-.705.092,1.491,1.491,0,0,1-.42-.055,1.33,1.33,0,0,1-.235-.083l.12-.5a.875.875,0,0,0,.207.078,1.239,1.239,0,0,0,.355.051,1.808,1.808,0,0,0,.466-.055,1,1,0,0,0,.373-.189,1.39,1.39,0,0,0,.3-.346A3.338,3.338,0,0,0,21.768.272Z" transform="translate(807.549 922.899)" fill="#fff"/>
  </g>
</svg>
